<?xml version="1.0"?>
<svg xmlns:rdf="http://www.w3.org/1999/02/22-rdf-syntax-ns#" xmlns="http://www.w3.org/2000/svg" xmlns:cc="http://creativecommons.org/ns#" xmlns:dc="http://purl.org/dc/elements/1.1/" xmlns:svg="http://www.w3.org/2000/svg" id="svg2" viewBox="0 0 604.84 604.84" version="1.1">
  <g id="layer4" transform="translate(-87.498 -102.18)">
    <g id="g3061" transform="matrix(2.5647 0 0 2.5647 -200.78 -840.36)">
      <path id="path4241" d="m164.18 430.06-6.935 55.414 11.108-15.738 11.239 15.738-6.935-55.325h-4.2359l-4.2417-0.0893z" stroke="#000" stroke-width="1.5" fill="none"/>
      <path id="path4256" d="m160.75 460.98h15.385" stroke="#000" stroke-width="1.5" fill="none"/>
      <path id="path4258" d="m161.48 452 13.6 0.0595" stroke="#000" stroke-width="1.5" fill="none"/>
      <path id="path4260" d="m162.53 443.91h11.631" stroke="#000" stroke-width="1.5" fill="none"/>
      <path id="path4262" d="m163.27 436.6 10.154 0.0595" stroke="#000" stroke-width="1.5" fill="none"/>
      <path id="path4291" d="m164.15 430.19h8.442" stroke="#000" stroke-width="1.5" fill="none"/>
      <path id="path4293" d="m159.78 469.66 17.319 0.008" stroke="#000" stroke-width="1.5" fill="none"/>
      <path id="path3629" d="m159.7 469.66 16.37-8.8017" stroke="#000" stroke-width="1.5" fill="none"/>
      <path id="path3631" d="m160.87 460.92 14.277-8.8611" stroke="#000" stroke-width="1.5" fill="none"/>
      <path id="path3633" d="m161.67 452 12.493-8.0285" stroke="#000" stroke-width="1.5" fill="none"/>
      <path id="path3635" d="m162.71 443.91 10.77-7.2554" stroke="#000" stroke-width="1.5" fill="none"/>
      <path id="path3639" d="m163.21 436.54 9.3542-6.3698" stroke="#000" stroke-width="1.5" fill="none"/>
      <path id="path3676" d="m176.99 469.66-16.37-8.8017" stroke="#000" stroke-width="1.5" fill="none"/>
      <path id="path3678" d="m175.82 460.92-14.277-8.8611" stroke="#000" stroke-width="1.5" fill="none"/>
      <path id="path3680" d="m175.02 452-12.493-8.0285" stroke="#000" stroke-width="1.5" fill="none"/>
      <path id="path3682" d="m173.98 443.91-10.77-7.2554" stroke="#000" stroke-width="1.5" fill="none"/>
      <path id="path3684" d="m173.48 436.54-9.3542-6.3698" stroke="#000" stroke-width="1.5" fill="none"/>
      <path id="path3712" stroke="#000" stroke-width="1.1796" d="m158.21 460.03v2.291h20.765v-2.291h-20.765z"/>
      <path id="path3712-3" stroke="#000" stroke-width="1.3135" d="m161.22 442.68v1.3643h14.707v-1.3643h-14.707z"/>
      <g id="g3031">
        <path id="path4797" d="m346.23 485.41c0 64.018-51.897 115.92-115.92 115.92-64.018 0-115.92-51.897-115.92-115.92 0-64.018 51.897-115.92 115.92-115.92 64.018 0 115.92 51.897 115.92 115.92z" transform="translate(.000016091 .000032734)" stroke="#000" stroke-width="4" fill="none"/>
        <path id="path4786" d="m268.41 467.28c-10.23 6.0066-6.5212 21.79-10.438 21.5 0 0-1.4475-9.7815-6.7812-10.75 3.3854 15.05-3.9262 21.047-3.875 20.969-2.2927-8.9431-8.5485-11.386-7.5625-9.7188 4.1199 6.9672-2.4375 19.219-2.4375 19.219s-3.9247-8.5675-8.0625-6.3438c6.2598 7.6426 0.83233 11.801-1.6875 18.344-2.4157 16.229-0.95257 19.334 1.75 21.531 4.7872 3.8917 3.2699 2.8474 5.4062 3.625-1.8074-3.5928-1.7636-8.2389-0.53125-13.312 0.23149-1.7075 0.74085-3.4628 1.625-5.25 0.0429-0.11555 0.0806-0.22818 0.125-0.34375l0.0312 0.0625c0.96504-1.8674 2.3344-3.7649 4.2188-5.5938-2.3116 13.592 1.7188 15.062 1.7188 15.062s1.1175-12.575 5.0625-15.031-0.7921 6.6357 1.875 8.1562c5.2584-9.1136 9.5625-12.094 9.5625-12.094 0.58359 2.9693-5.3438 14.594-5.3438 14.594 2.762 0.0324 7.7423-4.5292 8.6875-5.125 1.1846-0.74668-2.1851 7.1642-6.375 9.5312 3.4782 0.31028 6.1562-2.125 6.1562-2.125s-0.48041 1.0419-1.5 2.5c-2.719 5.0421-6.3802 11.558-11.688 13.938l5.2188 0.84375c2.9014 0.4598 14.395-6.5185 19.719-15.594 0 0 3.2221-8.0921 2.0938-12.219-1.7068 2.7843-3.4062 2.5-3.4062 2.5-1.0318-0.2136 3.7879-6.2629 4.875-9.25 2.5022-6.8751-0.71875-10.969-0.71875-10.969s-1.7838 7.9341-6.3438 9.0312c-0.0883-2.0519 9.8838-20.53 0.84375-28.219 0.34895 7.4247-1.1562 9.625-1.1562 9.625s-1.4463 3.1765-1.25 2.3125c1.5055-6.6271-1.0938-14.531-1.0938-14.531s-1.7042-3.6907 1.2812-16.875z" stroke-width="0" fill="#f00"/>
        <path id="path4790" stroke="#000" d="m270.31 460.03c-20.794 0.12756-38.845 7.1076-46.406 9.9375-9.8642 3.6917-20.991 6.4783-30.719 13.906-4.9614 3.7885-14.392 0.44409-22.75 1.1562 0 0-0.87298 30.915 2.7188 49.719 0.89851 4.704 2.2248 9.2918 7.625 10.344 2.8906 0.56308 9.8438 1.4375 9.8438 1.4375l3.38-8.91 5.84-5.62 1.0625 1.1562-5.6875 5.6875-2.5625 7.8125 20.103 0.90625 0.52232-6.375-3.0938-3.75s-0.65074-5.2093-0.875-7.4062l1.5 0.0536 0.82143 6.9554s2.664 2.5742 3.3929 3.3929l0.59821 7.192 22.688 0.96875s0.87331 10.78-1.4062 7.1875c-4.811 0.24481-11.011 0.57607-17.562 0.40625l-0.83 8.57c-1.0374 1.6991-0.86097 2.3538-3.0312 7.7188-0.34405 0.85048-0.84909-0.91877-1.5312 0.25l-1.75 2.1562 3.7812-9.7812 0.3125-9.3438c-4.6258-0.14969-8.2817-0.31486-13-0.6875l-2.0312 12.719-5.5 7.4062 0.125-1.0938 3.4688-7.4688 1.9688-12.156c-11.74-0.94195-21.621-2.0831-22.875-2.5312-8.4085 0.12907-12.174-13.858-12.281-15.125-2.7668-32.571-3.3438-51.75-3.3438-51.75h-47.688v0.5c0 63.734 51.673 115.44 115.41 115.44 63.733 0 115.44-51.704 115.44-115.44v-0.5l0.25-0.15625c-24.952-17.173-52.34-25.02-75.906-24.875zm-1.9062 7.25c-2.9855 13.184-1.2812 16.875-1.2812 16.875s2.5992 7.9041 1.0938 14.531c-0.19631 0.86402 1.25-2.3125 1.25-2.3125s1.5052-2.2003 1.1562-9.625c9.04 7.6892-0.93205 26.167-0.84375 28.219 4.5599-1.0971 6.3438-9.0312 6.3438-9.0312s3.2209 4.0937 0.71875 10.969c-1.0871 2.9871-5.9068 9.0364-4.875 9.25 0 0 1.6995 0.28433 3.4062-2.5 1.1284 4.1267-2.0938 12.219-2.0938 12.219-5.3234 9.0752-16.817 16.054-19.719 15.594l-5.2188-0.84375c5.3073-2.3799 8.9685-8.8954 11.688-13.938 1.0196-1.4581 1.5-2.5 1.5-2.5s-2.678 2.4353-6.1562 2.125c4.1899-2.367 7.5596-10.278 6.375-9.5312-0.94523 0.59583-5.9255 5.1574-8.6875 5.125 0 0 5.9273-11.624 5.3438-14.594 0 0-4.3041 2.9802-9.5625 12.094-2.6671-1.5205-1.875-8.1562-1.875-8.1562-3.945 2.4561-5.0625 15.031-5.0625 15.031s-4.0303-1.4707-1.7188-15.062c-1.8844 1.8289-3.2537 3.7263-4.2188 5.5938l-0.0312-0.0625c-0.0444 0.11557-0.0821 0.2282-0.125 0.34375-0.88415 1.7872-1.3935 3.5425-1.625 5.25-1.2323 5.0736-1.2761 9.7197 0.53125 13.312-2.1363-0.77761-0.61901 0.2667-5.4062-3.625-2.7026-2.197-4.1657-5.3026-1.75-21.531 2.5198-6.5426 7.9473-10.701 1.6875-18.344 4.1378-2.2238 8.0625 6.3438 8.0625 6.3438s6.5574-12.252 2.4375-19.219c-0.98596-1.6674 5.2698 0.77567 7.5625 9.7188-0.0512 0.0787 7.2604-5.9185 3.875-20.969 5.3337 0.96846 6.7812 10.75 6.7812 10.75 3.9162 0.29031 0.20759-15.493 10.438-21.5z"/>
        <path id="path3783" stroke="#000" stroke-width=".5261px" d="m233.37 469.89c0.0832-0.42472-0.0831-10.937-0.0831-10.937-1.1757 0.45357-1.9056 3.1906-4.3224-0.74326-0.36667 1.0929-3.2977-2.068-3.3249-3.1854-0.0279-1.1487 0.26268-4.208 1.2468-3.504-1.3781-2.1509 1.3763-4.141 2.2443-4.141l0.0832-3.2916s1.1465-2.2508 2.0781-2.5483c1.0892-0.34794 3.6574 1.168 3.6574 1.168 1.5031-1.5303 3.2418 0.84945 3.2418 0.84945h2.6599c2.1498 2.228 1.0683 5.424 0.49875 6.5832 1.2852-0.87555 4.0005 3.7303 1.6624 5.5214-0.40326 0.30893-2.1996 1.6352-2.4106 2.336-0.58187 1.9333-3.9899 0.89659-3.9899 0.31854 0 0 0.0832 1.168-0.41562 1.9112-0.49873 0.74327-1.6624 0.10619-1.6624 0.10619l0.0832 9.6624-1.2468-0.10618z"/>
        <path id="path3785" stroke="#000" stroke-width=".39558px" d="m308.53 467.22c0.0996-0.3676 0.247-6.2417-0.0726-6.2417-1.0272 0.29348-1.2941 1.3223-3.4057-1.2232-0.32036 0.70717-2.8813-1.3381-2.905-2.0612-0.0244-0.74332 0.2295-2.7229 1.0894-2.2673-1.204-1.3918 1.2025-2.6796 1.9609-2.6796-0.0847-1.7864 0.15424-2.93 1.8883-3.7789 0.95166-0.22514 3.0101 0.47743 3.0101 0.47743 0.84973-2.3819 3.0178 0.82799 3.0178 0.82799 1.8145 0.79072 3.9291 1.3812 2.8803 4.0823 1.5641 3.116 0.77876 3.0059-0.77412 5.2618-0.50838 1.251-3.486 0.58015-3.486 0.20612 0.0198 1.2893-0.69483 1.5484-1.8156 1.3054l0.0726 6.2523-1.4602-0.16149z"/>
        <path id="path3818" d="m307.71 449.29" stroke="#000" stroke-width=".51936px" fill="none"/>
        <path id="path3820" d="m307.71 449.29" stroke="#000" stroke-width=".51936px" fill="none"/>
        <path id="path3828" stroke="#000" stroke-width=".51936" d="m288.43 434.96l-4.2759 10.917 1.8897-0.63378-3.8113 7.3976 2.1724-1.1473c-1.1595 2.884-1.6114 4.262-3.7741 7.123l6.9194-0.0138-0.0993 3.648 1.0226 0.0993v0.0198l0.15231-0.0198 0.17405 0.0198v-0.0198l1.0008-0.0993 0.0861-3.6944s5.4577 1.5181 6.3012 1.5181c-2.8422-3.1784-3.0726-4.5355-4.2895-6.6001 1.5335 0.37676 2.0139 1.2855 2.0139 1.2855s-1.9097-4.469-2.8422-6.2794l2.7007 1.5833-3.8605-5.9611 2.5674 1.187c-2.4252-4.8293-3.1061-6.6933-4.0478-10.33h-0.00007z"/>
        <path id="path3835" stroke="#000" stroke-width=".40856px" d="m251.1 462.37v-8.7046h-1.717l5.3706-9.6692 19.049 0.0718 4.9958 10.123h-1.5618v8.1787h-26.137z"/>
      </g>
    </g>
  </g>
  <metadata>
    <rdf:RDF>
      <cc:Work>
        <dc:format>image/svg+xml</dc:format>
        <dc:type rdf:resource="http://purl.org/dc/dcmitype/StillImage"/>
        <cc:license rdf:resource="http://creativecommons.org/licenses/publicdomain/"/>
        <dc:publisher>
          <cc:Agent rdf:about="http://openclipart.org/">
            <dc:title>Openclipart</dc:title>
          </cc:Agent>
        </dc:publisher>
        <dc:title>No shale gas</dc:title>
        <dc:date>2012-04-14T17:59:12</dc:date>
        <dc:description>No shale gas with red flame</dc:description>
        <dc:source>http://openclipart.org/detail/169523/no-shale-gas-by-cybergedeon-169523</dc:source>
        <dc:creator>
          <cc:Agent>
            <dc:title>dominiquechappard</dc:title>
          </cc:Agent>
        </dc:creator>
        <dc:subject>
          <rdf:Bag>
            <rdf:li>clip art</rdf:li>
            <rdf:li>clipart</rdf:li>
            <rdf:li>ecology</rdf:li>
            <rdf:li>fracking</rdf:li>
            <rdf:li>no fracking</rdf:li>
            <rdf:li>no shale gas</rdf:li>
            <rdf:li>oil</rdf:li>
            <rdf:li>pollution</rdf:li>
            <rdf:li>shale gas</rdf:li>
            <rdf:li>stop fracking</rdf:li>
            <rdf:li>water pollution</rdf:li>
          </rdf:Bag>
        </dc:subject>
      </cc:Work>
      <cc:License rdf:about="http://creativecommons.org/licenses/publicdomain/">
        <cc:permits rdf:resource="http://creativecommons.org/ns#Reproduction"/>
        <cc:permits rdf:resource="http://creativecommons.org/ns#Distribution"/>
        <cc:permits rdf:resource="http://creativecommons.org/ns#DerivativeWorks"/>
      </cc:License>
    </rdf:RDF>
  </metadata>
</svg>
