<?xml version="1.0" encoding="iso-8859-1"?>
<!-- Uploaded to: SVG Repo, www.svgrepo.com, Generator: SVG Repo Mixer Tools -->
<svg height="800px" width="800px" version="1.1" id="Layer_1" xmlns="http://www.w3.org/2000/svg" xmlns:xlink="http://www.w3.org/1999/xlink" 
	 viewBox="0 0 512 512" xml:space="preserve">
<polyline style="fill:#ADABA6;" points="381.383,473.577 364.137,443.238 304.16,443.238 302.602,443.238 292.301,443.238 
	281.234,443.238 279.676,443.238 232.324,443.238 230.766,443.238 219.699,443.238 209.398,443.238 207.84,443.238 147.863,443.238 
	130.617,473.577 "/>
<polygon style="fill:#8BD8F7;" points="170.259,409.783 165.497,443.238 346.505,443.238 341.741,409.783 "/>
<polygon style="fill:#57BEDD;" points="177.796,409.783 173.031,443.238 196.023,443.238 200.787,409.783 "/>
<path style="fill:#8BD8F7;" d="M293.368,98.114V80.667c0-20.638-16.73-37.368-37.368-37.368s-37.368,16.73-37.368,37.368v17.447
	H293.368z"/>
<path style="fill:#57BEDD;" d="M274.054,46.965c-3.338-0.977-6.864-1.51-10.517-1.51c-20.641,0-37.368,16.73-37.368,37.368v17.447
	h21.034V82.823C247.202,65.838,258.537,51.509,274.054,46.965z"/>
<path style="fill:#36A1CB;" d="M285.669,128.453h0.872h20.118c7.461,0,13.509-6.048,13.509-13.509v-3.32
	c0-7.461-6.048-13.509-13.509-13.509h-20.118h-61.082h-20.118c-7.461,0-13.509,6.048-13.509,13.509v3.32
	c0,7.461,6.048,13.509,13.509,13.509h20.118h32.185"/>
<polygon style="fill:#8BD8F7;" points="306.137,159.712 301.687,128.453 210.316,128.453 205.865,159.712 "/>
<polygon style="fill:#57BEDD;" points="217.876,128.453 213.425,159.712 234.46,159.712 238.91,128.453 "/>
<path style="fill:#93918D;" d="M164.807,476.729l17.246-35.829c0.898-1.865,2.786-3.052,4.856-3.052h-25.176
	c-2.071,0-3.958,1.186-4.857,3.052l-17.246,35.829c-1.29,2.682-0.162,5.904,2.52,7.194c2.682,1.291,5.903,0.164,7.194-2.518
	l1.124-2.338h13.825C164.291,478.281,164.444,477.486,164.807,476.729z"/>
<path style="fill:#2393B5;" d="M220.403,114.943v-3.32c0-7.461,6.048-13.509,13.509-13.509h-0.916h-20.119
	c-7.46,0-13.509,6.048-13.509,13.509v3.32c0,7.461,6.049,13.509,13.509,13.509h20.119h0.916
	C226.451,128.453,220.403,122.405,220.403,114.943z"/>
<path style="fill:#CCC3A8;" d="M308.305,473.577H102.793h-81.2c-7.461,0-13.509,6.048-13.509,13.509v3.32
	c0,7.461,6.048,13.509,13.509,13.509h81.2h306.413h81.2c7.461,0,13.509-6.048,13.509-13.509v-3.32
	c0-7.461-6.048-13.509-13.509-13.509h-81.2h-73.593"/>
<path style="fill:#C9B585;" d="M37.897,490.405v-3.319c0-7.462,6.048-13.51,13.509-13.51H29.13c-7.461,0-13.509,6.048-13.509,13.51
	v3.319c0,7.462,6.048,13.51,13.509,13.51h22.276C43.945,503.916,37.897,497.868,37.897,490.405z"/>
<path style="fill:#231F20;" d="M490.407,465.493h-104.32l-14.921-26.249c-1.437-2.529-4.121-4.09-7.029-4.09h-10.617
	l-15.642-109.868l0,0l-0.309-2.171l-23.424-164.515c-0.003-0.025-0.007-0.05-0.011-0.074l-3.192-22.42
	c9.862-1.993,17.311-10.724,17.311-21.163v-3.32c0-11.906-9.687-21.593-21.593-21.593h-5.206v-9.363
	c0-22.303-16.151-40.892-37.368-44.719V8.084C264.084,3.618,260.466,0,256,0c-4.466,0-8.084,3.618-8.084,8.084v27.865
	c-21.217,3.827-37.368,22.415-37.368,44.719v9.363h-5.206c-11.906,0-21.593,9.687-21.593,21.593v3.32
	c0,10.44,7.45,19.173,17.313,21.164l-3.192,22.417c-0.004,0.026-0.008,0.053-0.011,0.079l-1.139,8.001l-10.726,75.324
	c0,0.001,0,0.002,0,0.003l-9.585,67.323l-2.836,19.919l-11.316,79.47c-0.001,0.006-0.001,0.014-0.002,0.02l-3.772,26.49h-10.619
	c-2.907,0-5.592,1.561-7.029,4.09l-14.921,26.249H21.593C9.687,465.493,0,475.18,0,487.087v3.32C0,502.313,9.687,512,21.593,512
	h468.813c11.906,0,21.593-9.687,21.593-21.593v-3.32C512,475.18,502.313,465.493,490.407,465.493z M211.952,174.31l30.496,22.669
	l-37.716,28.035l5.518-38.756L211.952,174.31z M271.46,281.106l40.277-24.71l7.71,54.148L271.46,281.106z M301.236,318.342h-90.471
	L256,290.591L301.236,318.342z M256.001,271.623l-33.367-20.47h66.735L256.001,271.623z M300.049,174.31l7.219,50.704
	l-37.716-28.035L300.049,174.31z M293.578,234.984h-75.154L256,207.053L293.578,234.984z M240.541,281.107l-47.986,29.438
	l7.709-54.148L240.541,281.107z M215.071,334.511h81.859L256,355.885L215.071,334.511z M238.536,365.005l-58.051,30.317
	l8.036-56.438L238.536,365.005z M323.482,338.885l8.035,56.438l-58.052-30.317L323.482,338.885z M256.001,186.905l-25.708-19.11
	h51.417L256.001,186.905z M256,374.126l52.796,27.573H203.203L256,374.126z M226.716,80.667c0-16.147,13.137-29.284,29.284-29.284
	s29.284,13.137,29.284,29.284v9.363h-58.568V80.667z M199.916,111.624c0-2.991,2.434-5.425,5.425-5.425h13.29h74.737h13.29
	c2.991,0,5.425,2.434,5.425,5.425v3.32c0,2.991-2.434,5.425-5.425,5.425h-20.99c-4.466,0-8.084,3.618-8.084,8.084
	c0,4.466,3.618,8.084,8.084,8.084h9.003l2.148,15.091h-81.639l2.148-15.091h40.314c4.466,0,8.084-3.618,8.084-8.084
	c0-4.466-3.618-8.084-8.084-8.084h-52.303c-2.991,0-5.425-2.434-5.425-5.425V111.624z M177.275,417.867h157.452l2.461,17.286
	H174.814L177.275,417.867z M495.832,490.407c0,2.991-2.434,5.425-5.425,5.425H21.593c-2.991,0-5.425-2.434-5.425-5.425v-3.32
	c0-2.991,2.434-5.425,5.425-5.425h108.856c0.006,0,0.013,0,0.019,0h177.836c4.466,0,8.084-3.618,8.084-8.084
	c0-4.466-3.618-8.084-8.084-8.084H144.511l8.055-14.17h12.93h181.009h12.928l8.055,14.17h-31.875c-4.466,0-8.084,3.618-8.084,8.084
	c0,4.466,3.618,8.084,8.084,8.084h45.762c0.005,0,0.011,0.001,0.016,0.001s0.011-0.001,0.016-0.001h108.999
	c2.991,0,5.425,2.434,5.425,5.425L495.832,490.407L495.832,490.407z"/>
</svg>