<?xml version="1.0"?>
<svg xmlns:rdf="http://www.w3.org/1999/02/22-rdf-syntax-ns#" xmlns="http://www.w3.org/2000/svg" xmlns:cc="http://creativecommons.org/ns#" xmlns:dc="http://purl.org/dc/elements/1.1/" xmlns:svg="http://www.w3.org/2000/svg" id="svg2" viewBox="0 0 604.84 604.84" version="1.1">
  <g id="layer4" transform="translate(-87.498 -102.18)">
    <g id="g2909" stroke="#000">
  <path id="path4241" d="m220.31 262.62-17.786 142.12 28.49-40.364 28.826 40.364-17.787-141.89h-10.864l-10.879-0.22903z" stroke="#fff" stroke-width="3.8471" fill="none"/>
  <path id="path4256" d="m211.49 341.94h39.459" stroke="#fff" stroke-width="3.8471" fill="none"/>
  <path id="path4258" d="m213.39 318.91 34.882 0.1526" stroke="#fff" stroke-width="3.8471" fill="none"/>
  <path id="path4260" d="m216.07 298.16h29.831" stroke="#fff" stroke-width="3.8471" fill="none"/>
  <path id="path4262" d="m217.96 279.4 26.043 0.1526" stroke="#fff" stroke-width="3.8471" fill="none"/>
  <path id="path4291" d="m220.23 262.97h21.652" stroke="#fff" stroke-width="3.8471" fill="none"/>
  <path id="path4293" d="m209.02 364.19 44.419 0.0205" stroke="#fff" stroke-width="3.8471" fill="none"/>
  <path id="path3629" d="m208.81 364.21 41.984-22.574" stroke="#fff" stroke-width="3.8471" fill="none"/>
  <path id="path3631" d="m211.81 341.79 36.618-22.726" stroke="#fff" stroke-width="3.8471" fill="none"/>
  <path id="path3633" d="m213.86 318.91 32.041-20.591" stroke="#fff" stroke-width="3.8471" fill="none"/>
  <path id="path3635" d="m216.54 298.16 27.621-18.608" stroke="#fff" stroke-width="3.8471" fill="none"/>
  <path id="path3639" d="m217.81 279.25 23.991-16.337" stroke="#fff" stroke-width="3.8471" fill="none"/>
  <path id="path3676" d="m253.16 364.21-41.98-22.57" stroke="#fff" stroke-width="3.8471" fill="none"/>
  <path id="path3678" d="m250.16 341.79-36.62-22.73" stroke="#fff" stroke-width="3.8471" fill="none"/>
  <path id="path3680" d="m248.11 318.91-32.04-20.59" stroke="#fff" stroke-width="3.8471" fill="none"/>
  <path id="path3682" d="m245.43 298.16-27.62-18.6" stroke="#fff" stroke-width="3.8471" fill="none"/>
  <path id="path3684" d="m244.16 279.25-23.99-16.34" stroke="#fff" stroke-width="3.8471" fill="none"/>
  <path id="path3712" stroke="#fff" stroke-width="3.0254" d="m205 339.5v5.8758h53.258v-5.8758h-53.258z"/>
  <path id="path3712-3" stroke="#fff" stroke-width="3.3688" d="m212.7 295v3.499h37.719v-3.499h-37.719z"/>
  <path id="path4797" d="m346.23 485.41a115.92 115.92 0 1 1 -231.83 0 115.92 115.92 0 1 1 231.83 0z" stroke="#fff" stroke-width="4" fill="none" transform="matrix(2.5647 0 0 2.5647 -200.78 -840.36)"/>
  <path id="path4790" stroke="#fff" stroke-width="2.5647" d="m492.5 339.5c-53.331 0.32716-99.627 18.229-119.02 25.487-25.299 9.4682-53.837 16.615-78.786 35.666-12.725 9.7166-36.913 1.139-58.348 2.9655 0 0-2.239 79.289 6.9729 127.52 2.3044 12.065 5.706 23.831 19.556 26.529 7.4137 1.4442 25.247 3.6868 25.247 3.6868l8.656-22.842 14.988-14.427 2.725 2.9655-14.587 14.587-6.5721 20.037 51.558 2.3243 1.3396-16.35-7.9347-9.6178s-1.669-13.361-2.2442-18.995l3.8471 0.13747 2.1068 17.839s6.8326 6.6021 8.7018 8.7018l1.5342 18.446 58.188 2.4846s2.2398 27.648-3.6067 18.434c-12.339 0.62787-28.241 1.4775-45.043 1.0419l-2.164 21.96c-2.6606 4.3578-2.2082 6.0369-7.7744 19.797-0.8824 2.1813-2.1777-2.3564-3.9272 0.64118l-4.4883 5.5302 9.6979-25.086 0.80148-23.964c-11.864-0.38391-21.24-0.80753-33.342-1.7633l-5.2096 32.62-14.106 18.995 0.32059-2.8052 8.8964-19.155 5.0493-31.178c-30.111-2.4158-55.452-5.3426-58.668-6.492-21.566 0.33103-31.222-35.541-31.498-38.792-7.0961-83.536-8.5758-132.73-8.5758-132.73h-122.31v1.2824c0 163.46 132.53 296.07 295.99 296.07s296.07-132.61 296.07-296.07v-1.2824l0.64119-0.40074c-63.99-44.07-134.24-64.19-194.68-63.82zm-4.889 18.594c-7.657 33.814-3.2861 43.28-3.2861 43.28s6.6663 20.272 2.8052 37.269c-0.50349 2.216 3.2059-5.931 3.2059-5.931s3.8604-5.6432 2.9655-24.686c23.185 19.721-2.3905 67.111-2.164 72.374 11.695-2.8138 16.27-23.163 16.27-23.163s8.2608 10.499 1.8434 28.132c-2.7882 7.6611-15.149 23.176-12.503 23.724 0 0 4.3587 0.72923 8.7361-6.4118 2.894 10.584-5.3699 31.338-5.3699 31.338-13.653 23.276-43.132 41.173-50.573 39.994l-13.385-2.164c13.612-6.1039 23.002-22.814 29.975-35.746 2.615-3.7396 3.8471-6.4118 3.8471-6.4118s-6.8685 6.2459-15.789 5.4501c10.746-6.0707 19.388-26.36 16.35-24.445-2.4243 1.5282-15.197 13.227-22.281 13.144 0 0 15.202-29.814 13.705-37.429 0 0-11.039 7.6434-24.525 31.017-6.8404-3.8997-4.8089-20.919-4.8089-20.919-10.118 6.2993-12.984 38.551-12.984 38.551s-10.337-3.772-4.4081-38.631c-4.833 4.6906-8.3449 9.557-10.82 14.347l-0.08-0.1603c-0.11388 0.29641-0.21057 0.58527-0.3206 0.88163-2.2676 4.5837-3.574 9.0856-4.1677 13.465-3.1605 13.012-3.2729 24.929 1.3625 34.143-5.4791-1.9944-1.5876 0.68402-13.866-9.2972-6.9314-5.6348-10.684-13.6-4.4883-55.222 6.4627-16.78 20.383-27.446 4.328-47.047 10.612-5.7034 20.678 16.27 20.678 16.27s16.818-31.422 6.2516-49.291c-2.5287-4.2764 13.516 1.9894 19.396 24.926-0.13132 0.20185 18.621-15.179 9.9384-53.779 13.68 2.4838 17.392 27.571 17.392 27.571 10.044 0.74457 0.53242-39.737 26.769-55.142z"/>
  <path id="path3783" stroke="#fff" stroke-width="1.3493px" d="m397.75 364.78c0.21339-1.0893-0.21313-28.05-0.21313-28.05-3.0154 1.1633-4.8874 8.183-11.086-1.9063-0.94041 2.803-8.4578-5.3038-8.5275-8.1697-0.0716-2.9462 0.6737-10.792 3.1978-8.9867-3.5344-5.5166 3.5298-10.621 5.7561-10.621l0.21339-8.4421s2.9406-5.7727 5.3297-6.5358c2.7935-0.89237 9.3802 2.9956 9.3802 2.9956 3.855-3.9248 8.3144 2.1786 8.3144 2.1786h6.822c5.5138 5.7144 2.7398 13.911 1.2792 16.884 3.2961-2.2456 10.26 9.5673 4.2637 14.161-1.0343 0.79233-5.6415 4.1938-6.1824 5.9912-1.4924 4.9585-10.233 2.2995-10.233 0.81697 0 0 0.21339 2.9956-1.066 4.9018-1.2791 1.9063-4.2638 0.27235-4.2638 0.27235l0.21339 24.782-3.1978-0.27233z"/>
  <path id="path3785" stroke="#fff" stroke-width="1.0146px" d="m590.52 357.95c0.25545-0.9428 0.63349-16.008-0.1862-16.008-2.6346 0.7527-3.3191 3.3913-8.7348-3.1372-0.82164 1.8137-7.3897-3.432-7.4507-5.2864-0.0626-1.9064 0.58861-6.9835 2.794-5.8151-3.0881-3.5696 3.0841-6.8723 5.0292-6.8723-0.21724-4.5818 0.39558-7.5147 4.8429-9.6918 2.4408-0.57742 7.7202 1.2245 7.7202 1.2245 2.1793-6.109 7.7399 2.1236 7.7399 2.1236 4.6537 2.028 10.077 3.5425 7.3871 10.47 4.0114 7.9916 1.9973 7.7094-1.9854 13.495-1.3039 3.2085-8.9408 1.4879-8.9408 0.52864 0.0508 3.3068-1.7821 3.9713-4.6566 3.3481l0.1862 16.035-3.7451-0.41418z"/>
  <path id="path3818" stroke="#fff" d="m588.43 311.95" stroke-width="1.332px" fill="none"/>
  <path id="path3820" stroke="#fff" d="m588.43 311.95" stroke-width="1.332px" fill="none"/>
  <path id="path3828" stroke="#fff" stroke-width="1.332" d="m538.97 275.2l-10.967 27.999 4.8467-1.6255-9.7749 18.973 5.5717-2.9426c-2.9739 7.3967-4.1328 10.931-9.6796 18.269l17.746-0.0354-0.25468 9.3561 2.6226 0.25468v0.0508l0.39063-0.0508 0.4464 0.0508v-0.0508l2.5668-0.25468 0.22082-9.4751s13.998 3.8934 16.161 3.8934c-7.2895-8.1519-7.8804-11.632-11.001-16.928 3.9331 0.96629 5.1651 3.2971 5.1651 3.2971s-4.8978-11.462-7.2895-16.105l6.9267 4.0606-9.9012-15.289 6.5846 3.0442c-6.2201-12.386-7.9664-17.167-10.381-26.493h-0.00018z"/>
  <path id="path3835" stroke="#fff" stroke-width="1.0478px" d="m443.21 345.5v-22.325h-4.4037l13.774-24.799 48.856 0.18415 12.813 25.964h-4.0057v20.976h-67.034z"/>
    </g>
  </g>
  <metadata>
    <rdf:RDF>
      <cc:Work>
        <dc:format>image/svg+xml</dc:format>
        <dc:type rdf:resource="http://purl.org/dc/dcmitype/StillImage"/>
        <cc:license rdf:resource="http://creativecommons.org/licenses/publicdomain/"/>
        <dc:publisher>
          <cc:Agent rdf:about="http://openclipart.org/">
            <dc:title>Openclipart</dc:title>
          </cc:Agent>
        </dc:publisher>
        <dc:title>No shale gas</dc:title>
        <dc:date>2012-04-14T17:58:08</dc:date>
        <dc:description>No shale gas in white and black</dc:description>
        <dc:source>http://openclipart.org/detail/169522/no-shale-gas-by-cybergedeon</dc:source>
        <dc:creator>
          <cc:Agent>
            <dc:title>dominiquechappard</dc:title>
          </cc:Agent>
        </dc:creator>
        <dc:subject>
          <rdf:Bag>
            <rdf:li>clip art</rdf:li>
            <rdf:li>clipart</rdf:li>
            <rdf:li>ecology</rdf:li>
            <rdf:li>fracking</rdf:li>
            <rdf:li>no fracking</rdf:li>
            <rdf:li>no shale gas</rdf:li>
            <rdf:li>oil</rdf:li>
            <rdf:li>pollution</rdf:li>
            <rdf:li>shale gas</rdf:li>
            <rdf:li>stop fracking</rdf:li>
            <rdf:li>water pollution</rdf:li>
          </rdf:Bag>
        </dc:subject>
      </cc:Work>
      <cc:License rdf:about="http://creativecommons.org/licenses/publicdomain/">
        <cc:permits rdf:resource="http://creativecommons.org/ns#Reproduction"/>
        <cc:permits rdf:resource="http://creativecommons.org/ns#Distribution"/>
        <cc:permits rdf:resource="http://creativecommons.org/ns#DerivativeWorks"/>
      </cc:License>
    </rdf:RDF>
  </metadata>
</svg>
